<svg id="OBJECTS" xmlns="http://www.w3.org/2000/svg" viewBox="0 0 400.47 252.51"><defs><style>.cls-1{fill:#8bc53e;}.cls-2{fill:#50aa50;}.cls-3,.cls-7{fill:#ccc;}.cls-4{fill:#fff;}.cls-5{fill:#415b91;}.cls-6{fill:#f3c17f;}.cls-7{fill-rule:evenodd;}.cls-8{fill:#f7f7f7;}.cls-9{fill:#405b91;}.cls-10{fill:#c4c4c4;}.cls-11{fill:#3f5b91;}.cls-12{fill:#b6d0fb;}</style></defs><title>under-construction</title><path class="cls-1" d="M317.66,333.88a5.85,5.85,0,0,0-3.53-4A3.64,3.64,0,0,0,309.6,332c-1.61-1.35-4.09-.28-5.39,1.38-2.1,2.68-.48,7.06-.13,7.35a2.78,2.78,0,0,0,1.4.25l15.71-.09a19.68,19.68,0,0,0,4.21-.74c2.68-1.07,4.5-5.67,2.77-8-1.17-1.57-3.49-1.91-5.36-1.31a15.05,15.05,0,0,0-5.16,3.06" transform="translate(-49.76 -90.98)"/><path class="cls-2" d="M305.26,341.46a2.61,2.61,0,0,1-1.51-.38c-.62-.5-2.18-5.23,0-8.07a5.67,5.67,0,0,1,3.67-2.17,3.26,3.26,0,0,1,1.9.34,3.7,3.7,0,0,1,1.55-1.47,4.47,4.47,0,0,1,3.37-.31,6.09,6.09,0,0,1,3.61,3.6,15.14,15.14,0,0,1,4.77-2.68c1.88-.6,4.53-.39,5.93,1.49a5,5,0,0,1,.51,4.39,6.64,6.64,0,0,1-3.51,4.38,19.81,19.81,0,0,1-4.37.78l-15.74.09Zm2.61-9.6-.29,0a4.67,4.67,0,0,0-3,1.78c-1.84,2.35-.47,6.27-.17,6.67a3,3,0,0,0,1,.1l15.73-.09a19.3,19.3,0,0,0,4-.7,5.66,5.66,0,0,0,2.89-3.7,4,4,0,0,0-.34-3.49c-1.1-1.47-3.25-1.62-4.79-1.13a14.56,14.56,0,0,0-5,3,.52.52,0,0,1-.48.11.52.52,0,0,1-.36-.35,5.29,5.29,0,0,0-3.19-3.64,3.42,3.42,0,0,0-2.57.24,2.54,2.54,0,0,0-1.3,1.47.52.52,0,0,1-.83.24A2.11,2.11,0,0,0,307.87,331.86Z" transform="translate(-49.76 -90.98)"/><path class="cls-2" d="M301.14,333.28a4.91,4.91,0,0,0-.54,2.8c.05.49.83.5.78,0a4.17,4.17,0,0,1,.43-2.41c.23-.44-.44-.84-.67-.39Z" transform="translate(-49.76 -90.98)"/><path class="cls-2" d="M298.87,333.91a5.4,5.4,0,0,0-.07,2.65c.11.49.86.28.75-.21a4.55,4.55,0,0,1,.07-2.24.39.39,0,0,0-.75-.21Z" transform="translate(-49.76 -90.98)"/><path class="cls-2" d="M303.24,332.33a.39.39,0,0,0,0-.78.39.39,0,0,0,0,.78Z" transform="translate(-49.76 -90.98)"/><path class="cls-2" d="M305.44,336.09v.69a.39.39,0,0,0,.78,0v-.69a.39.39,0,0,0-.78,0Z" transform="translate(-49.76 -90.98)"/><path class="cls-2" d="M318.58,337.3v.35a.39.39,0,0,0,.78,0v-.35a.39.39,0,0,0-.78,0Z" transform="translate(-49.76 -90.98)"/><path class="cls-2" d="M317.14,336.36l.17.17a.39.39,0,0,0,.55-.55l-.17-.17a.39.39,0,0,0-.55.55Z" transform="translate(-49.76 -90.98)"/><path class="cls-3" d="M96.12,319.22H69.79a1,1,0,1,1,0-2.07H96.12a1,1,0,1,1,0,2.07Z" transform="translate(-49.76 -90.98)"/><path class="cls-4" d="M328,227.91h-.75a1.13,1.13,0,1,0-2.26,0h-.75a1.88,1.88,0,1,1,3.76,0Z" transform="translate(-49.76 -90.98)"/><path class="cls-4" d="M330.65,184.12h-.75a1.13,1.13,0,1,0-2.26,0h-.75a1.88,1.88,0,1,1,3.76,0Z" transform="translate(-49.76 -90.98)"/><path class="cls-5" d="M237,336.77H201.26l.61-1.44c2.35-5.57,2.59-10.33,2.23-15.78l-.07-1.1,30.17-.09v1a70.45,70.45,0,0,0,2.41,16Zm-32.7-2.07h29.9a78.76,78.76,0,0,1-2.09-14.26l-25.93.08A33.7,33.7,0,0,1,204.35,334.7Z" transform="translate(-49.76 -90.98)"/><path class="cls-6" d="M191,319.92c-27.17,0-49.18-.15-50.14-.49-2.33-.83-5.36-4.05-5.41-6.34-.09-5-.3-11.69-.55-19.5-.74-23.54-1.76-55.77-.44-73.61a6.19,6.19,0,0,1,6.13-5.76h.1l156.63.23a6.18,6.18,0,0,1,6,6.09c.12,5.21.29,10.54.46,15.93.72,22.6,1.46,46-1,68.06-.1.87-.14,1.83-.19,2.83-.21,4.64-.47,10.41-6.45,11.59C293.21,319.53,235.24,319.92,191,319.92Zm-50.39-104a4.52,4.52,0,0,0-4.49,4.22c-1.31,17.75-.3,49.94.44,73.44.25,7.81.46,14.56.55,19.52,0,1.44,2.44,4.13,4.3,4.8,3.33.68,150.59.18,154.42-.54,4.69-.93,4.9-5.55,5.11-10,0-1,.09-2,.2-2.94,2.49-22,1.75-45.28,1-67.82-.17-5.4-.34-10.73-.46-15.95a4.51,4.51,0,0,0-4.4-4.46l-156.62-.23Z" transform="translate(-49.76 -90.98)"/><path class="cls-7" d="M292.92,219.85l-147.58-.19a4.83,4.83,0,0,0-5.08,4.16c-1.65,19.75.6,61,.93,77.55,0,1.62,2.67,4,4.57,4.64,2.24.71,142.48.17,145.91-.43,6.16-1.07,5.11-7.38,5.62-11.41,2.92-22.81,1.13-47.61.55-69.92A4.78,4.78,0,0,0,292.92,219.85Z" transform="translate(-49.76 -90.98)"/><path class="cls-5" d="M249.85,342.45h-61.4a3.81,3.81,0,0,1,0-7.63h61.4a3.81,3.81,0,0,1,0,7.63Zm-61.4-6a2.15,2.15,0,0,0,0,4.29h61.4a2.15,2.15,0,0,0,0-4.29Z" transform="translate(-49.76 -90.98)"/><path class="cls-7" d="M271.72,312.25h0" transform="translate(-49.76 -90.98)"/><path class="cls-3" d="M271.72,314.39c2.76,0,2.76-4.29,0-4.29s-2.76,4.29,0,4.29Z" transform="translate(-49.76 -90.98)"/><path class="cls-7" d="M280.36,312.25h0" transform="translate(-49.76 -90.98)"/><path class="cls-3" d="M280.36,314.39c2.76,0,2.76-4.29,0-4.29s-2.76,4.29,0,4.29Z" transform="translate(-49.76 -90.98)"/><path class="cls-7" d="M289,312.25h0" transform="translate(-49.76 -90.98)"/><path class="cls-3" d="M289,314.39c2.76,0,2.76-4.29,0-4.29s-2.76,4.29,0,4.29Z" transform="translate(-49.76 -90.98)"/><path class="cls-7" d="M219.14,217.57h0" transform="translate(-49.76 -90.98)"/><path class="cls-3" d="M219.14,218.57a1,1,0,0,0,0-2,1,1,0,0,0,0,2Z" transform="translate(-49.76 -90.98)"/><polygon class="cls-8" points="342.55 247.4 321.39 247.4 329.53 220.67 334.42 220.67 342.55 247.4"/><rect class="cls-9" x="319.65" y="247.4" width="24.65" height="3.05"/><polygon class="cls-6" points="323.43 240.72 321.39 247.4 342.55 247.4 340.52 240.72 323.43 240.72"/><polygon class="cls-6" points="325.46 234.04 338.48 234.04 336.45 227.35 327.5 227.35 325.46 234.04"/><g id="_Group_" data-name="&lt;Group&gt;"><g id="_Group_2" data-name="&lt;Group&gt;"><path class="cls-3" d="M401,340.76h4.69V322.58h24.1v18.18h4.69V322.58h5V308.07h-4v-1.34h-6.84v1.34H407.27v-1.34h-6.84v1.34h-4.35v14.52H401Zm36.95-31.18v.06L435,321.07h-5.16l2.91-11.48Zm-13.47,11.48h-5.16l2.91-11.48h5.16Zm-10.57,0h-5.16l2.91-11.48h5.16ZM401,309.58h5.16l-2.91,11.48h-5.16Z" transform="translate(-49.76 -90.98)"/></g></g><path class="cls-3" d="M170,163.05l1.41-1.41a.73.73,0,0,0,0-1l-1.23-1.22a1,1,0,0,1-.16-1.16l1-2.42a1,1,0,0,1,.94-.7h1.73a.73.73,0,0,0,.73-.73v-2a.73.73,0,0,0-.73-.73H172a1,1,0,0,1-.94-.7l-1-2.42a1,1,0,0,1,.16-1.16l1.23-1.22a.72.72,0,0,0,0-1L170,143.71a.73.73,0,0,0-1,0l-1.23,1.23a1,1,0,0,1-1.15.17l-2.43-1a1,1,0,0,1-.7-.94v-1.73a.73.73,0,0,0-.73-.73h-2a.73.73,0,0,0-.73.73v1.73a1,1,0,0,1-.7.94l-2.43,1a1,1,0,0,1-1.15-.17l-1.23-1.22a.72.72,0,0,0-1,0l-1.41,1.41a.73.73,0,0,0,0,1l1.22,1.22a1,1,0,0,1,.17,1.16l-1,2.42a1,1,0,0,1-.94.7h-1.74a.73.73,0,0,0-.73.73v2a.73.73,0,0,0,.73.73h1.74a1,1,0,0,1,.94.7l1,2.42a1,1,0,0,1-.17,1.16l-1.22,1.22a.73.73,0,0,0,0,1l1.41,1.41a.72.72,0,0,0,1,0l1.23-1.22a1,1,0,0,1,1.16-.16l2.42,1a1,1,0,0,1,.7.94v1.74a.73.73,0,0,0,.73.73h2a.73.73,0,0,0,.73-.73V163.6a1,1,0,0,1,.7-.94l2.43-1a1,1,0,0,1,1.15.16l1.23,1.22A.72.72,0,0,0,170,163.05Zm-8.26-3.85a5.82,5.82,0,1,1,5.82-5.82A5.82,5.82,0,0,1,161.78,159.2Z" transform="translate(-49.76 -90.98)"/><path class="cls-3" d="M183.5,168.55l-.36-1.18a.46.46,0,0,0-.56-.3l-1,.31a.64.64,0,0,1-.68-.25l-1-1.25a.65.65,0,0,1-.11-.72l.51-.95a.45.45,0,0,0-.18-.61L179,163a.45.45,0,0,0-.61.19l-.51.95a.64.64,0,0,1-.66.31l-1.62-.16a.64.64,0,0,1-.58-.43l-.31-1a.45.45,0,0,0-.56-.3l-1.18.35a.45.45,0,0,0-.3.57l.31,1a.64.64,0,0,1-.25.68l-1.25,1a.64.64,0,0,1-.72.11l-.95-.51a.45.45,0,0,0-.61.19l-.59,1.08a.46.46,0,0,0,.18.61l.95.51a.64.64,0,0,1,.31.65l-.16,1.62a.64.64,0,0,1-.43.58l-1,.31a.45.45,0,0,0-.3.56l.36,1.18a.45.45,0,0,0,.56.3l1-.31a.64.64,0,0,1,.68.25l1,1.26a.65.65,0,0,1,.11.72l-.51.95a.46.46,0,0,0,.19.61l1.09.58a.45.45,0,0,0,.61-.18l.51-.95a.64.64,0,0,1,.66-.31l1.61.16a.64.64,0,0,1,.59.43l.31,1a.45.45,0,0,0,.56.3l1.18-.36a.46.46,0,0,0,.3-.56l-.31-1a.64.64,0,0,1,.25-.68l1.26-1a.65.65,0,0,1,.72-.11l.95.51a.45.45,0,0,0,.61-.18l.58-1.09a.45.45,0,0,0-.19-.61l-.95-.51a.64.64,0,0,1-.31-.65l.16-1.62a.64.64,0,0,1,.43-.58l1-.31A.45.45,0,0,0,183.5,168.55ZM179,171.93a3.61,3.61,0,1,1-1.47-4.88A3.6,3.6,0,0,1,179,171.93Z" transform="translate(-49.76 -90.98)"/><path class="cls-3" d="M242.39,191.33h-32.6a1,1,0,1,1,0-2.07h32.6a1,1,0,1,1,0,2.07Z" transform="translate(-49.76 -90.98)"/><path class="cls-3" d="M176,206.14H123.36a1,1,0,0,1,0-2.07H176a1,1,0,0,1,0,2.07Z" transform="translate(-49.76 -90.98)"/><path class="cls-3" d="M428.5,234.18H375.84a1,1,0,1,1,0-2.07H428.5a1,1,0,0,1,0,2.07Z" transform="translate(-49.76 -90.98)"/><path class="cls-9" d="M449.2,343.49H50.8a1,1,0,0,1,0-2.07H449.2a1,1,0,0,1,0,2.07Z" transform="translate(-49.76 -90.98)"/><path class="cls-3" d="M303.06,178.3a8.37,8.37,0,0,0-7.21,12.6l.14.23-8.47,8.47a1.48,1.48,0,0,0-.42,1,1.84,1.84,0,0,0,.64,1.29,2,2,0,0,0,1.42.69,1.72,1.72,0,0,0,1-.34l8.45-8.45.23.14a8.36,8.36,0,1,0,4.23-15.58Zm0,14.24a5.88,5.88,0,1,1,0-11.76h0a5.88,5.88,0,1,1,0,11.76Z" transform="translate(-49.76 -90.98)"/><path class="cls-3" d="M300,187.89H306v-1.55H300Z" transform="translate(-49.76 -90.98)"/><path class="cls-9" d="M147.75,341.07a1,1,0,0,1-1-1V260.16a1,1,0,1,1,2.07,0V340A1,1,0,0,1,147.75,341.07Z" transform="translate(-49.76 -90.98)"/><path class="cls-9" d="M166.31,341.07a1,1,0,0,1-1-1V260.16a1,1,0,1,1,2.07,0V340A1,1,0,0,1,166.31,341.07Z" transform="translate(-49.76 -90.98)"/><path class="cls-9" d="M166.31,266.65H147.75a1,1,0,0,1,0-2.07h18.56a1,1,0,0,1,0,2.07Z" transform="translate(-49.76 -90.98)"/><path class="cls-9" d="M166.31,275.78H147.75a1,1,0,0,1,0-2.07h18.56a1,1,0,0,1,0,2.07Z" transform="translate(-49.76 -90.98)"/><path class="cls-9" d="M166.31,284.9H147.75a1,1,0,0,1,0-2.07h18.56a1,1,0,0,1,0,2.07Z" transform="translate(-49.76 -90.98)"/><path class="cls-9" d="M166.31,294H147.75a1,1,0,0,1,0-2.07h18.56a1,1,0,1,1,0,2.07Z" transform="translate(-49.76 -90.98)"/><path class="cls-9" d="M166.31,303.15H147.75a1,1,0,0,1,0-2.07h18.56a1,1,0,0,1,0,2.07Z" transform="translate(-49.76 -90.98)"/><path class="cls-9" d="M166.31,312.28H147.75a1,1,0,0,1,0-2.07h18.56a1,1,0,0,1,0,2.07Z" transform="translate(-49.76 -90.98)"/><path class="cls-9" d="M166.31,321.4H147.75a1,1,0,0,1,0-2.07h18.56a1,1,0,0,1,0,2.07Z" transform="translate(-49.76 -90.98)"/><path class="cls-9" d="M166.31,330.53H147.75a1,1,0,0,1,0-2.07h18.56a1,1,0,1,1,0,2.07Z" transform="translate(-49.76 -90.98)"/><path class="cls-3" d="M122.47,264a1,1,0,0,1-1-1v-4a1,1,0,1,1,2.07,0v4A1,1,0,0,1,122.47,264Z" transform="translate(-49.76 -90.98)"/><path class="cls-3" d="M124.49,262h-4a1,1,0,1,1,0-2.07h4a1,1,0,0,1,0,2.07Z" transform="translate(-49.76 -90.98)"/><path class="cls-3" d="M215.74,119.6a1,1,0,0,1-1-1v-4a1,1,0,0,1,2.07,0v4A1,1,0,0,1,215.74,119.6Z" transform="translate(-49.76 -90.98)"/><path class="cls-3" d="M217.76,117.58h-4a1,1,0,0,1,0-2.07h4a1,1,0,0,1,0,2.07Z" transform="translate(-49.76 -90.98)"/><path class="cls-9" d="M248.43,328.66a1.07,1.07,0,0,1-.29,0l-3.88-1.11a1,1,0,0,1,.57-2l3.88,1.11a1,1,0,0,1-.28,2Z" transform="translate(-49.76 -90.98)"/><path class="cls-9" d="M245.93,330a1.07,1.07,0,0,1-.29,0,1,1,0,0,1-.71-1.28l1.11-3.88a1,1,0,1,1,2,.57l-1.11,3.88A1,1,0,0,1,245.93,330Z" transform="translate(-49.76 -90.98)"/><path class="cls-3" d="M228,206.69a1,1,0,0,1-.28,0l-3.88-1.11a1,1,0,0,1,.57-2l3.88,1.11a1,1,0,0,1-.28,2Z" transform="translate(-49.76 -90.98)"/><path class="cls-3" d="M225.54,208.08a1,1,0,0,1-1-1.32l1.11-3.88a1,1,0,1,1,2,.57l-1.11,3.88A1,1,0,0,1,225.54,208.08Z" transform="translate(-49.76 -90.98)"/><circle class="cls-3" cx="175.55" cy="77.5" r="14.41"/><circle class="cls-4" cx="175.55" cy="77.5" r="10.79"/><path class="cls-10" d="M225.31,179.68a11.21,11.21,0,1,1,11.21-11.21A11.22,11.22,0,0,1,225.31,179.68Zm0-21.58a10.38,10.38,0,1,0,10.37,10.38A10.39,10.39,0,0,0,225.31,158.1Z" transform="translate(-49.76 -90.98)"/><path class="cls-3" d="M225.31,168.89a.42.42,0,0,1-.42-.42V163a.42.42,0,1,1,.84,0v5.49A.42.42,0,0,1,225.31,168.89Z" transform="translate(-49.76 -90.98)"/><path class="cls-3" d="M231.75,168.89h-6.44a.42.42,0,1,1,0-.84h6.44a.42.42,0,1,1,0,.84Z" transform="translate(-49.76 -90.98)"/><circle class="cls-3" cx="175.55" cy="67.92" r="0.43"/><circle class="cls-3" cx="232.08" cy="161.7" r="0.43" transform="translate(-96.13 120.49) rotate(-45)"/><circle class="cls-3" cx="185.12" cy="77.5" r="0.43"/><circle class="cls-3" cx="232.08" cy="175.24" r="0.43" transform="translate(-105.71 124.43) rotate(-45)"/><circle class="cls-3" cx="175.55" cy="87.07" r="0.43"/><circle class="cls-3" cx="218.54" cy="175.24" r="0.43" transform="translate(-109.67 114.9) rotate(-45)"/><circle class="cls-3" cx="165.97" cy="77.5" r="0.43"/><circle class="cls-3" cx="218.54" cy="161.7" r="0.43" transform="translate(-100.1 110.92) rotate(-45)"/><path class="cls-3" d="M246.39,163h-6a.42.42,0,0,1,0-.84h6a.42.42,0,0,1,0,.84Z" transform="translate(-49.76 -90.98)"/><path class="cls-3" d="M246.39,174.81h-6a.42.42,0,1,1,0-.84h6a.42.42,0,0,1,0,.84Z" transform="translate(-49.76 -90.98)"/><path class="cls-3" d="M253.91,168.89h-11.3a.42.42,0,1,1,0-.84h11.3a.42.42,0,1,1,0,.84Z" transform="translate(-49.76 -90.98)"/><rect class="cls-4" x="217.17" y="233.54" width="6.68" height="6.68"/><path class="cls-5" d="M274.14,331.72h-7.72V324h7.72Zm-6.68-1h5.65V325h-5.65Z" transform="translate(-49.76 -90.98)"/><path class="cls-9" d="M282.08,326h-6a.42.42,0,1,1,0-.84h6a.42.42,0,0,1,0,.84Z" transform="translate(-49.76 -90.98)"/><path class="cls-9" d="M284.35,330.56h-8.18c-.31,0-.56-.19-.56-.42s.25-.42.56-.42h8.18c.31,0,.56.19.56.42S284.66,330.56,284.35,330.56Z" transform="translate(-49.76 -90.98)"/><path class="cls-9" d="M287.33,328.14H276a.42.42,0,1,1,0-.84h11.3a.42.42,0,0,1,0,.84Z" transform="translate(-49.76 -90.98)"/><rect class="cls-4" x="120.21" y="226.46" width="6.68" height="6.68" transform="translate(197.35 368.62) rotate(180)"/><path class="cls-3" d="M127.42,233.66H119.7v-7.72h7.72Zm-6.68-1h5.64V227h-5.64Z" transform="translate(-49.76 -90.98)"/><path class="cls-3" d="M111.76,227.93h6a.42.42,0,1,0,0-.84h-6a.42.42,0,0,0,0,.84Z" transform="translate(-49.76 -90.98)"/><path class="cls-3" d="M109.48,232.51h8.18c.31,0,.56-.19.56-.42s-.25-.42-.56-.42h-8.18c-.31,0-.56.19-.56.42S109.17,232.51,109.48,232.51Z" transform="translate(-49.76 -90.98)"/><path class="cls-3" d="M106.51,230.09h11.3a.42.42,0,1,0,0-.84h-11.3a.42.42,0,0,0,0,.84Z" transform="translate(-49.76 -90.98)"/><rect class="cls-11" x="274.24" y="160.59" width="2.07" height="89.19"/><rect class="cls-3" x="268.9" y="150.83" width="12.76" height="20.55" rx="6.15" ry="6.15"/><path class="cls-11" d="M333.4,256.39l2.19.35c.49.08.7-.67.21-.75l-2.19-.35c-.49-.08-.7.67-.21.75Z" transform="translate(-49.76 -90.98)"/><path class="cls-11" d="M333.32,251.64a6.35,6.35,0,0,1,1.72-.06c.5,0,.49-.73,0-.78a7.1,7.1,0,0,0-1.93.09c-.49.09-.28.84.21.75Z" transform="translate(-49.76 -90.98)"/><path class="cls-11" d="M333.08,247.31l1.68-.67c.46-.18.26-.93-.21-.75l-1.68.67c-.46.18-.26.93.21.75Z" transform="translate(-49.76 -90.98)"/><path class="cls-11" d="M314,257.12a8.91,8.91,0,0,0,1.68-.4c.47-.16.27-.91-.21-.75a8.91,8.91,0,0,1-1.68.4c-.49.07-.28.82.21.75Z" transform="translate(-49.76 -90.98)"/><path class="cls-11" d="M313,251.59a8.58,8.58,0,0,1,2.11.32.39.39,0,0,0,.21-.75,9.47,9.47,0,0,0-2.32-.35.39.39,0,0,0,0,.78Z" transform="translate(-49.76 -90.98)"/><path class="cls-11" d="M313.68,245.19l1.68.54c.48.15.68-.6.21-.75l-1.68-.54c-.48-.15-.68.6-.21.75Z" transform="translate(-49.76 -90.98)"/><polygon class="cls-9" points="270.44 250.99 271.82 239.07 278.56 239.07 280.12 250.82 270.44 250.99"/><path class="cls-1" d="M129.87,285.89c-.31-1.9-1.65-6.79-4.6-5.24-4.78,2.51,1,12-4.77,13.7-.31-3.79-1.12-6.4-2.84-6.25-3.53.32-2.59,8.53-2.65,10.38s-.15,3.73-.23,5.63c-4.16.75-3.33-10.09-5.86-11.59-3.93-2.33-4.76,2.86-4.66,5.26.18,4.08,1.28,9,5.12,11.13a10.4,10.4,0,0,0,5.23,1.38,54.54,54.54,0,0,0,.66,9.61,0,0,0,0,0,.07,0h0l2.33.13v0a.8.8,0,0,0,1.59,0c0-2,1.24-11.64,1.38-19.84a8.4,8.4,0,0,0,5.53-1.57C130.13,295.75,130.6,290.4,129.87,285.89Z" transform="translate(-49.76 -90.98)"/><path class="cls-1" d="M118.44,321.28a1.3,1.3,0,0,1-.67-.18,1.12,1.12,0,0,1-.5-.65l-1.72-.09-.62,0-.1-.39a53.14,53.14,0,0,1-.67-9.22,11.43,11.43,0,0,1-5-1.45c-4.09-2.31-5.16-7.53-5.34-11.5-.07-1.6.26-4.9,2.05-6a3.08,3.08,0,0,1,3.27.31c1.22.72,1.69,2.95,2.23,5.53.73,3.49,1.39,6,3,6l0-.86c.07-1.48.13-2.95.18-4.39,0-.28,0-.72,0-1.25-.11-3.23-.32-9.25,3.08-9.56a1.86,1.86,0,0,1,1.42.45c.95.8,1.55,2.64,1.85,5.62,2.15-1,2-3.44,1.91-6.29s-.26-5.86,2.27-7.19a2.45,2.45,0,0,1,2.33-.1c2.11,1.06,2.84,5.19,2.91,5.66h0c.56,3.46.8,9.77-3.88,13.2a9.2,9.2,0,0,1-5.36,1.7c-.12,5.35-.67,11.25-1,15.19-.18,2-.33,3.53-.34,4.17a1.18,1.18,0,0,1-.61,1A1.33,1.33,0,0,1,118.44,321.28Zm-2.8-1.8,2.47.13V320c0,.21.07.27.12.3a.45.45,0,0,0,.43,0,.29.29,0,0,0,.15-.28c0-.68.15-2.17.34-4.24.38-4,.95-10.15,1-15.6v-.5l.5.07a8,8,0,0,0,5.21-1.49c4.3-3.15,4.06-9.09,3.53-12.34h0c-.23-1.43-1-4.31-2.43-5a1.59,1.59,0,0,0-1.53.09c-2,1.07-1.92,3.64-1.8,6.37.13,3,.28,6.39-3.05,7.37l-.52.15,0-.54c-.31-3.78-1-5.13-1.59-5.59a1,1,0,0,0-.77-.25c-2.56.23-2.37,5.92-2.27,8.65,0,.56,0,1,0,1.31,0,1.44-.11,2.91-.18,4.4l-.07,1.59-.35.06c-2.84.51-3.64-3.32-4.35-6.7-.46-2.17-.93-4.42-1.81-4.95a2.28,2.28,0,0,0-2.37-.31c-1.32.79-1.69,3.59-1.62,5.17.17,3.75,1.15,8.66,4.89,10.77a10,10,0,0,0,5,1.32l.48,0v.48A54.63,54.63,0,0,0,115.64,319.48Z" transform="translate(-49.76 -90.98)"/><path class="cls-5" d="M125.29,342H108.41a1.78,1.78,0,0,1-1.79-1.46l-3.83-19.68,1.59-.31,3.83,19.68a.18.18,0,0,0,.2.15h16.88a.18.18,0,0,0,.2-.15l3.8-19.68,1.59.31-3.8,19.68A1.78,1.78,0,0,1,125.29,342Z" transform="translate(-49.76 -90.98)"/><path class="cls-6" d="M103,314.48h28c.48,0,.87.53.87,1.17v4.26c0,.65-.39,1.17-.87,1.17H103c-.48,0-.87-.53-.87-1.17v-4.26C102.09,315,102.48,314.48,103,314.48Z" transform="translate(-49.76 -90.98)"/><path class="cls-9" d="M131,321.53H103a1.49,1.49,0,0,1-1.31-1.62v-4.26A1.49,1.49,0,0,1,103,314h28a1.49,1.49,0,0,1,1.31,1.62v4.26A1.49,1.49,0,0,1,131,321.53Zm-28-6.61c-.2,0-.43.31-.43.73v4.26c0,.42.23.73.43.73h28c.2,0,.43-.31.43-.73v-4.26c0-.42-.23-.73-.43-.73Z" transform="translate(-49.76 -90.98)"/><path class="cls-12" d="M131,321.45H103a1.42,1.42,0,0,1-1.24-1.54v-4.26a1.42,1.42,0,0,1,1.24-1.54h28a1.42,1.42,0,0,1,1.24,1.54v4.26A1.42,1.42,0,0,1,131,321.45Zm-28-6.61c-.24,0-.5.33-.5.81v4.26c0,.47.26.81.5.81h28c.24,0,.5-.33.5-.81v-4.26c0-.48-.26-.81-.5-.81Z" transform="translate(-49.76 -90.98)"/><path class="cls-9" d="M131,321.9H103a1.85,1.85,0,0,1-1.68-2v-4.26a1.85,1.85,0,0,1,1.68-2h28a1.85,1.85,0,0,1,1.68,2v4.26A1.85,1.85,0,0,1,131,321.9Zm-28-6.61a.57.57,0,0,0-.11.36v4.26a.51.51,0,0,0,.12.38h28s.06-.14.06-.36v-4.26a.51.51,0,0,0-.12-.38Z" transform="translate(-49.76 -90.98)"/><path class="cls-2" d="M106,297.75l1.38.18c.5.06.49-.72,0-.78L106,297c-.5-.06-.49.72,0,.78Z" transform="translate(-49.76 -90.98)"/><path class="cls-2" d="M108,291.63v.69a.39.39,0,0,0,.78,0v-.69a.39.39,0,0,0-.78,0Z" transform="translate(-49.76 -90.98)"/><path class="cls-2" d="M110.74,298.76l1-.56c.44-.24,0-.92-.39-.67l-1,.56c-.44.24,0,.92.39.67Z" transform="translate(-49.76 -90.98)"/><path class="cls-2" d="M106.75,307.71l1.22-.85c.41-.28,0-1-.39-.67l-1.22.85c-.41.28,0,1,.39.67Z" transform="translate(-49.76 -90.98)"/><path class="cls-2" d="M103.83,301l.87.34c.47.18.67-.57.21-.75l-.87-.34c-.47-.18-.67.57-.21.75Z" transform="translate(-49.76 -90.98)"/><path class="cls-2" d="M109.48,304.64a.55.55,0,0,1,.41.24c.32.39.87-.17.55-.55a1.29,1.29,0,0,0-1-.47c-.5,0-.5.74,0,.78Z" transform="translate(-49.76 -90.98)"/><path class="cls-2" d="M111.18,308.3a2.64,2.64,0,0,0,.19,1.52c.19.46.86.06.67-.39a1.65,1.65,0,0,1-.11-.92c.08-.49-.67-.7-.75-.21Z" transform="translate(-49.76 -90.98)"/><path class="cls-2" d="M115.25,308.44l.69.18a.39.39,0,0,0,.21-.75l-.69-.18a.39.39,0,0,0-.21.75Z" transform="translate(-49.76 -90.98)"/><path class="cls-2" d="M117.73,300.79a1.29,1.29,0,0,0,.47,1.13c.38.32.93-.23.55-.55a.6.6,0,0,1-.24-.58c0-.5-.73-.5-.78,0Z" transform="translate(-49.76 -90.98)"/><path class="cls-2" d="M116.74,295.23a1.2,1.2,0,0,0-.2,1c.09.49.84.28.75-.21a.43.43,0,0,1,.12-.39c.3-.4-.38-.79-.67-.39Z" transform="translate(-49.76 -90.98)"/><path class="cls-2" d="M121,297.51v.69a.39.39,0,0,0,.78,0v-.69a.39.39,0,0,0-.78,0Z" transform="translate(-49.76 -90.98)"/><path class="cls-2" d="M113.77,296.29l.52.35c.42.28.81-.39.39-.67l-.52-.35c-.42-.28-.81.39-.39.67Z" transform="translate(-49.76 -90.98)"/><path class="cls-2" d="M115.07,289.83a1,1,0,0,1,.24.59c0,.5.82.5.78,0a1.87,1.87,0,0,0-.47-1.14c-.33-.38-.87.17-.55.55Z" transform="translate(-49.76 -90.98)"/><path class="cls-2" d="M117,287.48v1a.39.39,0,0,0,.78,0v-1a.39.39,0,0,0-.78,0Z" transform="translate(-49.76 -90.98)"/><path class="cls-2" d="M121.85,292.05l.34.35c.35.36.9-.19.55-.55l-.34-.35c-.35-.36-.9.19-.55.55Z" transform="translate(-49.76 -90.98)"/><path class="cls-2" d="M122.62,287.42l1,.06c.5,0,.5-.75,0-.78l-1-.06c-.5,0-.5.75,0,.78Z" transform="translate(-49.76 -90.98)"/><path class="cls-2" d="M123.72,281.19l.69.69a.39.39,0,0,0,.55-.55l-.69-.69a.39.39,0,0,0-.55.55Z" transform="translate(-49.76 -90.98)"/><path class="cls-2" d="M126.72,279.19v1.21a.39.39,0,0,0,.78,0v-1.21a.39.39,0,0,0-.78,0Z" transform="translate(-49.76 -90.98)"/><path class="cls-2" d="M128.13,286.46l.34-.52c.28-.42-.4-.81-.67-.39l-.34.52c-.28.42.4.81.67.39Z" transform="translate(-49.76 -90.98)"/><path class="cls-2" d="M125.49,294.1l.87-.34c.46-.18.26-.93-.21-.75l-.87.34c-.46.18-.26.93.21.75Z" transform="translate(-49.76 -90.98)"/><path class="cls-2" d="M128.93,293l.86-.18c.49-.1.28-.85-.21-.75l-.86.18c-.49.1-.28.85.21.75Z" transform="translate(-49.76 -90.98)"/><path class="cls-2" d="M126.72,296.64v.17a.39.39,0,0,0,.78,0v-.17a.39.39,0,0,0-.78,0Z" transform="translate(-49.76 -90.98)"/><path class="cls-2" d="M120,308.55l.52-.35c.41-.28,0-1-.39-.67l-.52.35c-.41.28,0,1,.39.67Z" transform="translate(-49.76 -90.98)"/><path class="cls-2" d="M119.58,311.42a2.16,2.16,0,0,1,1.06-.57c.49-.11.28-.86-.21-.75a3,3,0,0,0-1.4.77c-.36.35.19.9.55.55Z" transform="translate(-49.76 -90.98)"/><path class="cls-2" d="M116.38,311.89l.18.34c.23.45.9.05.67-.39l-.18-.34c-.23-.45-.9-.05-.67.39Z" transform="translate(-49.76 -90.98)"/><path class="cls-2" d="M113.42,312.72a1.93,1.93,0,0,0,1.34.19c.49-.1.28-.85-.21-.75a1.05,1.05,0,0,1-.74-.11c-.44-.23-.84.44-.39.67Z" transform="translate(-49.76 -90.98)"/><path class="cls-2" d="M119.85,305.35l1.55-.19c.49-.06.5-.84,0-.78l-1.55.19c-.49.06-.5.84,0,.78Z" transform="translate(-49.76 -90.98)"/><path class="cls-4" d="M189.51,270.26l25.11-22.7c1.24-1.12-.6-3-1.83-1.83l-25.11,22.7c-1.24,1.12.6,3,1.83,1.83Z" transform="translate(-49.76 -90.98)"/><path class="cls-4" d="M217.89,281.84,243,259.14c1.24-1.12-.6-3-1.83-1.83L216.06,280c-1.24,1.12.6,3,1.83,1.83Z" transform="translate(-49.76 -90.98)"/><path class="cls-4" d="M187.05,290.42l52.64-51.33c1.2-1.17-.64-3-1.83-1.83l-52.64,51.33c-1.2,1.17.64,3,1.83,1.83Z" transform="translate(-49.76 -90.98)"/><rect class="cls-5" x="216.61" y="39.84" width="1.13" height="72.44"/><path class="cls-5" d="M267,218.68a3.8,3.8,0,0,1-3.77-4.12.61.61,0,1,1,1.22,0,2.92,2.92,0,0,0,.74,2.15,2.88,2.88,0,0,0,1.81.75,3.11,3.11,0,1,0,0-6.22.61.61,0,0,1-.61-.61v-3.38a.61.61,0,1,1,1.22,0v2.81a4.33,4.33,0,0,1-.61,8.61Z" transform="translate(-49.76 -90.98)"/><circle class="cls-6" cx="217.18" cy="112.27" r="4.6"/><path class="cls-5" d="M242.86,221.51a.56.56,0,0,1,0-1.11l24.89-3.67a.56.56,0,1,1,.16,1.12L243,221.51Z" transform="translate(-49.76 -90.98)"/><path class="cls-5" d="M290.63,229.79l-.16-.06-22.89-11.95a.56.56,0,1,1,.52-1L291,228.74a.56.56,0,0,1-.36,1.06Z" transform="translate(-49.76 -90.98)"/><rect class="cls-4" x="225.54" y="225.26" width="73.61" height="47.36" rx="5.87" ry="5.87" transform="translate(-3.27 -132.21) rotate(9.86)"/><path class="cls-5" d="M289.6,278.4a6.89,6.89,0,0,1-1.18-.1l-60.53-10.52a6.86,6.86,0,0,1-5.59-7.94l6-34.67a6.87,6.87,0,0,1,7.94-5.59l60.53,10.52a6.87,6.87,0,0,1,5.59,7.94l-6,34.67A6.88,6.88,0,0,1,289.6,278.4ZM235.09,221a5.32,5.32,0,0,0-5.23,4.4l-6,34.67a5.31,5.31,0,0,0,4.32,6.14l60.53,10.52a5.31,5.31,0,0,0,6.14-4.32l6-34.67a5.31,5.31,0,0,0-4.32-6.14L236,221.12A5.32,5.32,0,0,0,235.09,221Z" transform="translate(-49.76 -90.98)"/><rect class="cls-6" x="228.76" y="228.93" width="67.17" height="40.03" rx="3.75" ry="3.75" transform="translate(-3.27 -132.21) rotate(9.86)"/><path class="cls-6" d="M288.85,274.58a4.74,4.74,0,0,1-.81-.07l-58.51-10.17a4.67,4.67,0,0,1-3.8-5.4l5.52-31.78a4.67,4.67,0,0,1,5.4-3.8l58.51,10.17a4.67,4.67,0,0,1,3.8,5.4l-5.52,31.78a4.67,4.67,0,0,1-4.59,3.87Zm-.54-1.6a3.11,3.11,0,0,0,3.6-2.53l5.52-31.78a3.12,3.12,0,0,0-2.53-3.6l-58.51-10.17a3.12,3.12,0,0,0-3.6,2.53l-5.52,31.78a3.11,3.11,0,0,0,2.53,3.6Z" transform="translate(-49.76 -90.98)"/><polygon class="cls-4" points="210.66 177.95 225.87 164.01 234.29 182.05 210.66 177.95"/><path class="cls-5" d="M284.94,273.71l-25.65-4.46,16.51-15.13Zm-23.39-5.12,21.61,3.76-7.7-16.51Z" transform="translate(-49.76 -90.98)"/><polygon class="cls-4" points="180.58 172.72 207.55 148 222.47 180 180.58 172.72"/><path class="cls-5" d="M273.13,271.66,229.21,264l28.27-25.91Zm-41.66-8.29,39.87,6.93-14.21-30.45Z" transform="translate(-49.76 -90.98)"/><circle class="cls-4" cx="285.66" cy="243.02" r="3.77" transform="translate(-52.44 391.89) rotate(-80.14)"/><path class="cls-5" d="M285.67,247.31a4.35,4.35,0,0,1-.74-.06,4.27,4.27,0,1,1,.74.06Zm0-7.54a3.25,3.25,0,1,0,3.21,3.81h0a3.26,3.26,0,0,0-3.21-3.81Z" transform="translate(-49.76 -90.98)"/><rect class="cls-3" x="207.28" y="37.4" width="56.53" height="6.22"/><path class="cls-6" d="M362.69,257H343.93V91.06h18.77Zm-16.91-1.86h15.05V92.92H345.78Z" transform="translate(-49.76 -90.98)"/><path class="cls-6" d="M362.46,109.27h-18.3V91h18.3ZM346,107.39h14.53V92.86H346Z" transform="translate(-49.76 -90.98)"/><rect class="cls-6" x="352.37" y="88.52" width="1.88" height="23.21" transform="translate(-17.08 188.18) rotate(-45)"/><rect class="cls-6" x="341.7" y="99.18" width="23.21" height="1.88" transform="translate(-17.08 188.18) rotate(-45)"/><path class="cls-6" d="M362.46,125.69h-18.3V107.39h18.3ZM346,123.81h14.53V109.27H346Z" transform="translate(-49.76 -90.98)"/><rect class="cls-6" x="352.37" y="104.93" width="1.88" height="23.21" transform="translate(-28.69 192.98) rotate(-45)"/><rect class="cls-6" x="341.7" y="115.6" width="23.21" height="1.88" transform="translate(-28.69 192.98) rotate(-45)"/><path class="cls-6" d="M362.46,142.1h-18.3v-18.3h18.3ZM346,140.22h14.53V125.69H346Z" transform="translate(-49.76 -90.98)"/><rect class="cls-6" x="352.37" y="121.35" width="1.88" height="23.21" transform="translate(-40.3 197.79) rotate(-45)"/><rect class="cls-6" x="341.7" y="132.01" width="23.21" height="1.88" transform="translate(-40.29 197.8) rotate(-45)"/><path class="cls-6" d="M362.46,158.52h-18.3V140.22h18.3ZM346,156.64h14.53V142.1H346Z" transform="translate(-49.76 -90.98)"/><rect class="cls-6" x="352.37" y="137.76" width="1.88" height="23.21" transform="translate(-51.9 202.6) rotate(-45)"/><rect class="cls-6" x="341.7" y="148.43" width="23.21" height="1.88" transform="translate(-51.9 202.6) rotate(-45)"/><path class="cls-6" d="M362.46,174.93h-18.3V156.64h18.3ZM346,173h14.53V158.52H346Z" transform="translate(-49.76 -90.98)"/><rect class="cls-6" x="352.37" y="154.18" width="1.88" height="23.21" transform="translate(-63.51 207.41) rotate(-45)"/><rect class="cls-6" x="341.7" y="164.84" width="23.21" height="1.88" transform="translate(-63.5 207.42) rotate(-45)"/><path class="cls-6" d="M362.46,191.34h-18.3V173h18.3ZM346,189.46h14.53V174.93H346Z" transform="translate(-49.76 -90.98)"/><rect class="cls-6" x="352.37" y="170.59" width="1.88" height="23.21" transform="translate(-75.12 212.21) rotate(-45)"/><rect class="cls-6" x="341.7" y="181.26" width="23.21" height="1.88" transform="translate(-75.11 212.23) rotate(-45)"/><path class="cls-6" d="M362.46,207.76h-18.3V189.46h18.3ZM346,205.88h14.53V191.34H346Z" transform="translate(-49.76 -90.98)"/><rect class="cls-6" x="352.37" y="187" width="1.88" height="23.21" transform="translate(-86.72 217.02) rotate(-45)"/><rect class="cls-6" x="341.7" y="197.67" width="23.21" height="1.88" transform="translate(-86.72 217.04) rotate(-45)"/><path class="cls-6" d="M362.46,224.17h-18.3V205.88h18.3ZM346,222.29h14.53V207.76H346Z" transform="translate(-49.76 -90.98)"/><rect class="cls-6" x="352.37" y="203.42" width="1.88" height="23.21" transform="translate(-98.33 221.83) rotate(-45)"/><rect class="cls-6" x="341.7" y="214.08" width="23.21" height="1.88" transform="translate(-98.32 221.84) rotate(-45)"/><path class="cls-6" d="M362.46,240.59h-18.3V222.29h18.3ZM346,238.71h14.53V224.17H346Z" transform="translate(-49.76 -90.98)"/><rect class="cls-6" x="352.37" y="219.83" width="1.88" height="23.21" transform="translate(-109.93 226.64) rotate(-45)"/><rect class="cls-6" x="341.7" y="230.5" width="23.21" height="1.88" transform="translate(-109.93 226.65) rotate(-45)"/><path class="cls-6" d="M362.46,257h-18.3V238.71h18.3ZM346,255.12h14.53V240.59H346Z" transform="translate(-49.76 -90.98)"/><rect class="cls-6" x="352.37" y="236.25" width="1.88" height="23.21" transform="translate(-121.54 231.44) rotate(-45)"/><rect class="cls-6" x="341.7" y="246.91" width="23.21" height="1.88" transform="translate(-121.55 231.36) rotate(-44.99)"/><path class="cls-6" d="M395.12,125.44H376.82v-18.3h18.29Zm-16.41-1.88h14.53V109H378.7Z" transform="translate(-49.76 -90.98)"/><rect class="cls-6" x="374.36" y="115.35" width="23.21" height="1.88" transform="translate(-18.91 216.07) rotate(-45.01)"/><rect class="cls-6" x="385.03" y="104.69" width="1.88" height="23.21" transform="translate(-18.95 216.01) rotate(-45)"/><path class="cls-6" d="M378.7,125.44H360.41v-18.3H378.7Zm-16.41-1.88h14.53V109H362.29Z" transform="translate(-49.76 -90.98)"/><rect class="cls-6" x="357.95" y="115.35" width="23.21" height="1.88" transform="translate(-23.72 204.46) rotate(-45.01)"/><rect class="cls-6" x="368.62" y="104.69" width="1.88" height="23.21" transform="translate(-23.76 204.4) rotate(-45)"/><path class="cls-6" d="M362.29,125.44H344v-18.3h18.29Zm-16.41-1.88h14.53V109H345.88Z" transform="translate(-49.76 -90.98)"/><path class="cls-6" d="M345.88,125.44H327.58v-18.3h18.29Zm-16.41-1.88H344V109H329.46Z" transform="translate(-49.76 -90.98)"/><rect class="cls-6" x="325.12" y="115.35" width="23.21" height="1.88" transform="translate(-33.37 181.19) rotate(-45)"/><rect class="cls-6" x="335.79" y="104.69" width="1.88" height="23.21" transform="translate(-33.37 181.18) rotate(-45)"/><path class="cls-6" d="M329.46,125.44H311.17v-18.3h18.29ZM313,123.56h14.53V109H313Z" transform="translate(-49.76 -90.98)"/><rect class="cls-6" x="308.71" y="115.35" width="23.21" height="1.88" transform="translate(-38.18 169.58) rotate(-45)"/><rect class="cls-6" x="319.37" y="104.69" width="1.88" height="23.21" transform="translate(-38.18 169.58) rotate(-45)"/><path class="cls-6" d="M313,125.44H294.75v-18.3H313Zm-16.41-1.88h14.53V109H296.63Z" transform="translate(-49.76 -90.98)"/><path class="cls-6" d="M295.69,125.44H279.28a.94.94,0,0,1-.66-1.61L295,107.42l1.33,1.33-14.81,14.81H295.3l16.14-16.14,1.33,1.33-16.41,16.41A.94.94,0,0,1,295.69,125.44Z" transform="translate(-49.76 -90.98)"/><rect class="cls-6" x="302.96" y="104.69" width="1.88" height="23.21" transform="translate(-42.99 157.97) rotate(-45)"/><path class="cls-6" d="M362.73,275.28H343.93V257h18.81Zm-16.87-1.88H360.8V258.86H345.86Z" transform="translate(-49.76 -90.98)"/><polygon class="cls-6" points="311.32 184.02 294.45 167.61 295.81 166.28 312.69 182.69 311.32 184.02"/><polygon class="cls-6" points="295.81 184.02 294.45 182.69 311.32 166.28 312.69 167.61 295.81 184.02"/><path class="cls-6" d="M362.73,340.93H343.93V322.64h18.81Zm-16.87-1.88H360.8V324.52H345.86Z" transform="translate(-49.76 -90.98)"/><polygon class="cls-6" points="311.32 249.68 294.45 233.26 295.81 231.94 312.69 248.35 311.32 249.68"/><polygon class="cls-6" points="295.81 249.68 294.45 248.35 311.32 231.94 312.69 233.26 295.81 249.68"/><path class="cls-6" d="M362.73,290.13H343.93V271.84h18.81Zm-16.87-1.88H360.8V273.72H345.86Z" transform="translate(-49.76 -90.98)"/><polygon class="cls-6" points="311.32 198.88 294.45 182.47 295.81 181.14 312.69 197.55 311.32 198.88"/><polygon class="cls-6" points="295.81 198.88 294.45 197.55 311.32 181.14 312.69 182.47 295.81 198.88"/><path class="cls-6" d="M362.73,306.55H343.93V288.25h18.81Zm-16.87-1.88H360.8V290.13H345.86Z" transform="translate(-49.76 -90.98)"/><polygon class="cls-6" points="311.32 215.29 294.45 198.88 295.81 197.55 312.69 213.97 311.32 215.29"/><polygon class="cls-6" points="295.81 215.29 294.45 213.97 311.32 197.55 312.69 198.88 295.81 215.29"/><path class="cls-6" d="M362.73,323H343.93V304.67h18.81Zm-16.87-1.88H360.8V306.55H345.86Z" transform="translate(-49.76 -90.98)"/><polygon class="cls-6" points="311.32 231.71 294.45 215.29 295.81 213.97 312.69 230.38 311.32 231.71"/><polygon class="cls-6" points="295.81 231.71 294.45 230.38 311.32 213.97 312.69 215.29 295.81 231.71"/><path class="cls-3" d="M152.86,189" transform="translate(-49.76 -90.98)"/><path class="cls-3" d="M152.86,190.53a1.56,1.56,0,0,0,0-3.11,1.56,1.56,0,0,0,0,3.11Z" transform="translate(-49.76 -90.98)"/><path class="cls-3" d="M321.56,156.48" transform="translate(-49.76 -90.98)"/><path class="cls-3" d="M321.56,158a1.56,1.56,0,0,0,0-3.11,1.56,1.56,0,0,0,0,3.11Z" transform="translate(-49.76 -90.98)"/><path class="cls-3" d="M391.39,267.79h.69" transform="translate(-49.76 -90.98)"/><path class="cls-3" d="M391.39,269.35h.69a1.56,1.56,0,1,0,0-3.11h-.69a1.56,1.56,0,0,0,0,3.11Z" transform="translate(-49.76 -90.98)"/><path class="cls-3" d="M91.33,290.61" transform="translate(-49.76 -90.98)"/><path class="cls-3" d="M91.33,292.17a1.56,1.56,0,0,0,0-3.11,1.56,1.56,0,0,0,0,3.11Z" transform="translate(-49.76 -90.98)"/><path class="cls-3" d="M240,141.27" transform="translate(-49.76 -90.98)"/><path class="cls-3" d="M240,142.83a1.56,1.56,0,0,0,0-3.11,1.56,1.56,0,0,0,0,3.11Z" transform="translate(-49.76 -90.98)"/></svg>